<?xml version="1.0" encoding="iso-8859-1"?>
<!-- Generator: Adobe Illustrator 19.0.0, SVG Export Plug-In . SVG Version: 6.00 Build 0)  -->
<svg version="1.1" id="Layer_1" xmlns="http://www.w3.org/2000/svg" xmlns:xlink="http://www.w3.org/1999/xlink" x="0px" y="0px"
	 viewBox="0 0 488 488" style="enable-background:new 0 0 488 488;" xml:space="preserve">
<g transform="translate(0 -540.36)">
	<g>
		<g>
			<path d="M439,540.36H49c-5.5,0-10,4.5-10,10v468c0,5.5,4.5,10,10,10h390c5.5,0,10-4.5,10-10v-468
				C449,544.86,444.5,540.36,439,540.36z M429,1008.36H59v-448h370V1008.36z"/>
			<path d="M269.1,761.86c1.8,1.3,3.9,2,6,2c3.1,0,6.1-1.4,8-3.9l92.3-122c3.4-4.4,2.5-10.7-1.9-14c-4.4-3.4-10.7-2.5-14,1.9
				l-92.3,122C263.8,752.26,264.7,758.56,269.1,761.86z"/>
			<polygon points="275.1,763.86 275.1,763.86 275.1,763.86 			"/>
			<path d="M336.7,723.36c0,16.9,13.8,30.6,30.8,30.6c16.5,0,30-13.7,30-30.6c0-16.9-13.5-30.6-30-30.6
				C350.5,692.76,336.7,706.46,336.7,723.36z M377.5,723.36c0,5.8-4.6,10.6-10,10.6c-6.1,0-10.8-4.6-10.8-10.6s4.8-10.6,10.8-10.6
				C372.9,712.76,377.5,717.66,377.5,723.36z"/>
			<path d="M275.2,692.96c16.5,0,30-13.7,30-30.6c0-16.9-13.5-30.6-30-30.6c-17,0-30.8,13.7-30.8,30.6
				C244.4,679.26,258.2,692.96,275.2,692.96z M275.2,651.86c5.4,0,10,4.8,10,10.6s-4.6,10.6-10,10.6c-6.1,0-10.8-4.6-10.8-10.6
				S269.2,651.86,275.2,651.86z"/>
			<path d="M111.3,763.86h101.5c5.6,0,10-4.5,10-10s-4.5-10-10-10H111.3c-5.5,0-10,4.5-10,10S105.8,763.86,111.3,763.86z"/>
			<path d="M111.3,824.86h266.2c5.5,0,10-4.5,10-10s-4.5-10-10-10H111.3c-5.5,0-10,4.5-10,10S105.8,824.86,111.3,824.86z"/>
			<path d="M111.3,885.86h266.2c5.5,0,10-4.5,10-10s-4.5-10-10-10H111.3c-5.5,0-10,4.5-10,10S105.8,885.86,111.3,885.86z"/>
			<path d="M111.3,946.76h266.2c5.5,0,10-4.5,10-10s-4.5-10-10-10H111.3c-5.5,0-10,4.5-10,10S105.8,946.76,111.3,946.76z"/>
			<path d="M111.3,702.86h101.5c5.6,0,10-4.5,10-10s-4.5-10-10-10H111.3c-5.5,0-10,4.5-10,10S105.8,702.86,111.3,702.86z"/>
			<path d="M111.3,641.96h101.5c5.6,0,10-4.5,10-10s-4.5-10-10-10H111.3c-5.5,0-10,4.5-10,10S105.8,641.96,111.3,641.96z"/>
		</g>
	</g>
</g>
<g>
</g>
<g>
</g>
<g>
</g>
<g>
</g>
<g>
</g>
<g>
</g>
<g>
</g>
<g>
</g>
<g>
</g>
<g>
</g>
<g>
</g>
<g>
</g>
<g>
</g>
<g>
</g>
<g>
</g>
</svg>
